<?xml version='1.0' encoding='utf-8'?>
<!DOCTYPE svg PUBLIC '-//W3C//DTD SVG 1.1//EN' 'http://www.w3.org/Graphics/SVG/1.1/DTD/svg11.dtd'>
<svg version="1.1" xmlns="http://www.w3.org/2000/svg" viewBox="0 0 512 512" xmlns:xlink="http://www.w3.org/1999/xlink" enable-background="new 0 0 512 512">
  <g>
    <g>
      <g>
        <g>
          <g>
            <path d="M256,500.3l-5.2-2.1C6,368.3,13.1,149.5,13.1,149.5L138.7,21.8c0,0,60.8-10.1,117.3-10.1c57.4,0,116.2,11.2,116.2,11.2       l126.6,126.6c0,0,7.4,222.6-238.7,348.7L256,500.3z M33.9,156.8C42.2,289.6,125.2,409,256,477.5       C386.8,409,469.8,289.6,478.1,156.8L362.9,41.6c-70.6-12.5-143.2-12.5-213.8,0L33.9,156.8z"/>
          </g>
        </g>
        <g>
          <polygon points="218.6,357.1 112.8,251.2 127.3,236.7 218.6,327 384.7,161.9 399.2,176.5     "/>
        </g>
      </g>
    </g>
  </g>
</svg>
